<svg width="30" height="30" viewBox="0 0 30 30" fill="none" xmlns="http://www.w3.org/2000/svg">
<g clip-path="url(#clip0_33_18)">
<path d="M14.935 30.0113L14.4925 29.815C14 29.5988 2.5 24.405 2.5 15V6.84501C2.50044 6.06022 2.74848 5.29558 3.2088 4.65998C3.66912 4.02437 4.31825 3.55021 5.06375 3.30501L15 0.011261L24.9363 3.30501C25.6818 3.55021 26.3309 4.02437 26.7912 4.65998C27.2515 5.29558 27.4996 6.06022 27.5 6.84501V15C27.5 25.7213 15.89 29.6938 15.395 29.8588L14.935 30.0113ZM15 2.63251L5.855 5.66501C5.60618 5.74628 5.38946 5.90421 5.23588 6.11617C5.0823 6.32813 4.99973 6.58326 5 6.84501V15C5 21.8675 13.05 26.3225 15.0588 27.3263C17.0638 26.52 25 22.8288 25 15V6.84501C25.0003 6.58326 24.9177 6.32813 24.7641 6.11617C24.6105 5.90421 24.3938 5.74628 24.145 5.66501L15 2.63251Z" fill="white"/>
<path d="M13.8888 18.1775H13.8475C13.5311 18.1727 13.219 18.1037 12.93 17.9748C12.641 17.8459 12.3812 17.6597 12.1663 17.4275L9.28375 14.4275L11.085 12.7L13.89 15.625L20.3663 9.14877L22.1338 10.9163L15.5575 17.4925C15.3385 17.7114 15.0782 17.8846 14.7917 18.0022C14.5053 18.1198 14.1984 18.1794 13.8888 18.1775Z" fill="white"/>
</g>
<defs>
<clipPath id="clip0_33_18">
<rect width="30" height="30" fill="white"/>
</clipPath>
</defs>
</svg>
