<svg width="30" height="30" viewBox="0 0 30 30" fill="none" xmlns="http://www.w3.org/2000/svg">
<g clip-path="url(#clip0_33_31)">
<path d="M23.75 27.5H6.25C2.80375 27.5 0 24.6963 0 21.25V8.75C0 5.30375 2.80375 2.5 6.25 2.5H23.75C27.1963 2.5 30 5.30375 30 8.75V21.25C30 24.6963 27.1963 27.5 23.75 27.5ZM6.25 5C4.1825 5 2.5 6.6825 2.5 8.75V21.25C2.5 23.3175 4.1825 25 6.25 25H23.75C25.8175 25 27.5 23.3175 27.5 21.25V8.75C27.5 6.6825 25.8175 5 23.75 5H6.25ZM22.5 16.25H17.5C16.1213 16.25 15 15.1288 15 13.75V11.25C15 9.87125 16.1213 8.75 17.5 8.75H22.5C23.8787 8.75 25 9.87125 25 11.25V13.75C25 15.1288 23.8787 16.25 22.5 16.25ZM17.5 11.25V13.75H22.5012V11.25H17.5ZM12.5 15C12.5 14.31 11.94 13.75 11.25 13.75H6.25C5.56 13.75 5 14.31 5 15C5 15.69 5.56 16.25 6.25 16.25H11.25C11.94 16.25 12.5 15.69 12.5 15ZM25 20C25 19.31 24.44 18.75 23.75 18.75H6.25C5.56 18.75 5 19.31 5 20C5 20.69 5.56 21.25 6.25 21.25H23.75C24.44 21.25 25 20.69 25 20Z" fill="white"/>
</g>
<defs>
<clipPath id="clip0_33_31">
<rect width="30" height="30" fill="white"/>
</clipPath>
</defs>
</svg>
